<?xml version="1.0" standalone="no"?>
<!DOCTYPE svg PUBLIC "-//W3C//DTD SVG 20010904//EN"
 "http://www.w3.org/TR/2001/REC-SVG-20010904/DTD/svg10.dtd">
<svg version="1.0" xmlns="http://www.w3.org/2000/svg"
 width="200.000000pt" height="200.000000pt" viewBox="0 0 200.000000 200.000000"
 preserveAspectRatio="xMidYMid meet">

<g transform="translate(0.000000,200.000000) scale(0.100000,-0.100000)"
fill="#000000" stroke="none">
<path d="M30 1263 c0 -75 4 -122 9 -115 5 8 6 54 3 103 -5 88 -5 88 22 98 33
13 210 2 232 -14 12 -8 16 -31 18 -86 1 -40 7 -83 14 -94 9 -16 11 5 12 108
l0 127 -155 0 -155 0 0 -127z"/>
<path d="M69 1329 c-11 -6 -9 -122 2 -133 3 -3 53 -8 112 -12 l107 -7 0 71 c0
66 -2 72 -22 76 -42 9 -187 13 -199 5z"/>
<path d="M60 1155 c-11 -13 3 -15 119 -15 72 0 131 4 131 9 0 4 -41 11 -92 15
-129 9 -144 8 -158 -9z"/>
<path d="M1700 1005 c0 -57 4 -95 10 -95 6 0 10 11 10 25 0 34 14 31 38 -7 18
-28 22 -30 28 -15 4 12 -1 26 -14 40 -20 22 -20 22 -1 46 27 33 11 51 -17 18
-13 -15 -26 -27 -29 -27 -3 0 -5 25 -5 55 0 30 -4 55 -10 55 -6 0 -10 -38 -10
-95z"/>
<path d="M820 1067 c0 -11 11 -17 38 -19 30 -2 38 -7 40 -26 4 -23 -13 -52
-29 -52 -5 0 -9 14 -9 30 0 20 -5 30 -15 30 -12 0 -15 -13 -15 -60 0 -47 3
-60 15 -60 8 0 15 9 15 20 0 15 7 20 25 20 27 0 45 30 45 74 0 31 -21 47 -70
53 -32 5 -40 3 -40 -10z"/>
<path d="M1314 1072 c-18 -2 -22 -12 -28 -64 -9 -87 -8 -98 9 -98 12 0 15 14
15 64 0 36 5 68 10 71 6 3 10 -3 10 -14 0 -11 5 -43 11 -71 9 -43 14 -50 34
-50 22 0 24 5 31 71 8 79 18 74 29 -13 4 -42 11 -58 21 -58 12 0 14 9 9 48
-16 107 -20 117 -45 114 -13 -1 -26 -4 -28 -6 -2 -3 -6 -33 -10 -68 l-6 -63
-13 65 c-15 72 -19 78 -49 72z"/>
<path d="M1940 991 c0 -72 2 -79 22 -84 23 -7 38 -1 38 14 0 5 -9 9 -20 9 -16
0 -20 7 -20 36 0 27 5 37 20 41 11 3 20 12 20 20 0 10 -6 13 -16 9 -11 -4 -18
1 -21 14 -12 44 -23 15 -23 -59z"/>
<path d="M983 1028 c-19 -9 -23 -19 -23 -59 0 -53 1 -54 48 -64 25 -5 32 -3
32 9 0 9 -11 16 -27 18 -36 4 -36 22 0 26 26 3 28 6 25 40 -3 40 -18 48 -55
30z m37 -33 c0 -8 -9 -15 -20 -15 -20 0 -26 11 -13 23 12 13 33 7 33 -8z"/>
<path d="M1103 1030 c-20 -8 -23 -17 -23 -59 0 -55 1 -56 48 -66 25 -5 32 -3
32 9 0 9 -11 16 -27 18 -36 4 -36 22 0 26 26 3 28 6 25 40 -3 40 -17 47 -55
32z m35 -38 c2 -7 -6 -12 -17 -12 -21 0 -27 11 -14 24 9 9 26 2 31 -12z"/>
<path d="M1207 1033 c-11 -10 -8 -123 3 -123 6 0 10 18 10 40 0 29 5 42 20 50
11 6 20 17 20 25 0 18 -16 20 -26 4 -5 -8 -8 -8 -13 0 -4 6 -10 8 -14 4z"/>
<path d="M1500 1025 c0 -9 9 -15 25 -15 35 0 31 -19 -5 -26 -25 -5 -30 -11
-30 -35 0 -32 3 -35 53 -44 30 -6 37 -4 37 9 0 11 -9 16 -30 16 -20 0 -30 5
-30 15 0 8 7 15 15 15 8 0 15 -5 15 -11 0 -5 5 -7 10 -4 17 10 12 82 -6 89
-28 11 -54 6 -54 -9z"/>
<path d="M1656 1032 c-3 -6 -15 -8 -26 -5 -18 5 -20 0 -20 -56 0 -48 3 -61 15
-61 11 0 15 11 15 43 0 34 4 46 20 53 13 6 17 13 11 23 -5 8 -11 9 -15 3z"/>
<path d="M1843 1030 c-20 -8 -23 -17 -23 -59 0 -55 1 -56 48 -66 25 -5 32 -3
32 9 0 9 -11 16 -27 18 -36 4 -36 22 0 26 26 3 28 6 25 40 -3 40 -17 47 -55
32z m35 -38 c2 -7 -6 -12 -17 -12 -21 0 -27 11 -14 24 9 9 26 2 31 -12z"/>
<path d="M361 903 l2 -128 9 105 c12 139 13 140 165 140 108 0 115 -1 139 -25
24 -24 25 -31 23 -125 -1 -56 1 -104 5 -107 3 -4 6 55 6 130 l0 137 -175 0
-175 0 1 -127z"/>
<path d="M447 993 c-35 -6 -45 -31 -54 -131 l-6 -75 129 6 c151 7 154 9 154
104 0 56 -3 64 -26 79 -26 17 -140 27 -197 17z"/>
<path d="M483 763 c37 -2 97 -2 135 0 37 2 6 3 -68 3 -74 0 -105 -1 -67 -3z"/>
</g>
</svg>
